<svg width="550" height="377" viewBox="0 0 550 377" fill="none" xmlns="http://www.w3.org/2000/svg">
<path fill-rule="evenodd" clip-rule="evenodd" d="M457.423 1.67562C459.024 1.44406 460.656 1.32458 462.315 1.32458H466.699V0.415039H462.315C460.621 0.415039 458.953 0.537081 457.317 0.773719L457.423 1.67562ZM475.468 1.32458H484.236V0.415039H475.468V1.32458ZM501.773 1.32458H493.005V0.415039H501.773V1.32458ZM510.542 1.32458H519.311V0.415039H510.542V1.32458ZM536.848 1.32458H528.079V0.415039H536.848V1.32458ZM545.616 1.32458H550.001V0.415039H545.616V1.32458ZM447.979 4.47566C444.935 5.87561 442.093 7.70817 439.516 9.9043L439.016 9.18311C441.649 6.9391 444.553 5.06631 447.665 3.63549L447.979 4.47566ZM427.706 26.9569C428.968 23.581 430.621 20.4295 432.601 17.5717L431.951 17.0175C429.927 19.9376 428.238 23.1581 426.948 26.6085L427.706 26.9569ZM425.181 37.429C424.972 39.2042 424.864 41.0148 424.864 42.8536V48.6847H424.044V42.8536C424.044 40.9754 424.154 39.1255 424.367 37.3113L425.181 37.429ZM424.864 72.009V60.3469H424.044V72.009H424.864ZM424.864 83.6712V95.3333H424.044V83.6712H424.864ZM424.864 112.827V106.995H424.044V112.827C424.044 114.665 423.936 116.476 423.727 118.251L424.541 118.369C424.754 116.555 424.864 114.705 424.864 112.827ZM421.96 129.072C420.67 132.522 418.981 135.743 416.957 138.663L416.307 138.109C418.287 135.251 419.94 132.099 421.202 128.723L421.96 129.072ZM401.243 152.045C404.355 150.614 407.259 148.741 409.892 146.497L409.392 145.776C406.815 147.972 403.973 149.805 400.929 151.205L401.243 152.045ZM391.591 154.906C389.955 155.143 388.287 155.265 386.593 155.265H382.156V154.356H386.593C388.251 154.356 389.884 154.236 391.485 154.005L391.591 154.906ZM328.915 155.265H337.789V154.356H328.915V155.265ZM355.536 155.265H346.662V154.356H355.536V155.265ZM364.409 155.265H373.283V154.356H364.409V155.265ZM462.315 375.675C460.656 375.675 459.024 375.556 457.423 375.324L457.317 376.226C458.953 376.463 460.621 376.585 462.315 376.585H466.699V375.675H462.315ZM475.468 375.675H484.236V376.585H475.468V375.675ZM501.773 375.675H493.005V376.585H501.773V375.675ZM510.542 375.675H519.311V376.585H510.542V375.675ZM536.848 375.675H528.079V376.585H536.848V375.675ZM545.616 375.675H550.001V376.585H545.616V375.675ZM447.979 372.524C444.935 371.124 442.093 369.292 439.516 367.096L439.016 367.817C441.649 370.061 444.553 371.934 447.665 373.364L447.979 372.524ZM427.706 350.043C428.968 353.419 430.621 356.57 432.601 359.428L431.951 359.982C429.927 357.062 428.238 353.842 426.948 350.391L427.706 350.043ZM425.181 339.571C424.972 337.796 424.864 335.985 424.864 334.146V328.315H424.044V334.146C424.044 336.024 424.154 337.874 424.367 339.689L425.181 339.571ZM424.864 304.991V316.653H424.044V304.991H424.864ZM424.864 293.329V281.667H424.044V293.329H424.864ZM424.864 264.173V270.004H424.044V264.173C424.044 262.335 423.936 260.524 423.727 258.749L424.541 258.631C424.754 260.445 424.864 262.295 424.864 264.173ZM421.96 247.928C420.67 244.478 418.981 241.257 416.957 238.337L416.307 238.891C418.287 241.749 419.94 244.901 421.202 248.277L421.96 247.928ZM401.243 224.955C404.355 226.386 407.259 228.259 409.892 230.503L409.392 231.224C406.815 229.028 403.973 227.195 400.929 225.795L401.243 224.955ZM391.591 222.093C389.955 221.857 388.287 221.735 386.593 221.735H382.156V222.644H386.593C388.251 222.644 389.884 222.764 391.485 222.995L391.591 222.093ZM328.915 221.735H337.789V222.644H328.915V221.735ZM355.536 221.735H346.662V222.644H355.536V221.735ZM364.409 221.735H373.283V222.644H364.409V221.735ZM476.82 61.3949C478.151 61.2023 479.509 61.103 480.888 61.103H485.207V60.1934H480.888C479.473 60.1934 478.08 60.2954 476.714 60.493L476.82 61.3949ZM502.485 61.103H493.846V60.1934H502.485V61.103ZM511.125 61.103H519.764V60.1934H511.125V61.103ZM537.042 61.103H528.403V60.1934H537.042V61.103ZM545.681 61.103H550.001V60.1934H545.681V61.103ZM468.968 63.7231C466.436 64.8871 464.073 66.4109 461.93 68.237L461.43 67.5158C463.629 65.6419 466.055 64.0778 468.653 62.8829L468.968 63.7231ZM452.11 82.4165C453.16 79.6094 454.534 76.9889 456.181 74.6126L455.53 74.0584C453.84 76.497 452.43 79.1866 451.352 82.0681L452.11 82.4165ZM450.01 91.124C449.837 92.6001 449.747 94.1057 449.747 95.6347V102.781H448.927V95.6347C448.927 94.0662 449.019 92.5213 449.197 91.0063L450.01 91.124ZM449.747 124.22V117.073H448.927V124.22C448.927 125.826 448.857 127.413 448.719 128.979L449.536 129.067C449.676 127.472 449.747 125.855 449.747 124.22ZM447.838 138.575C446.984 141.702 445.858 144.697 444.491 147.528L443.768 147.099C445.11 144.32 446.215 141.38 447.053 138.311L447.838 138.575ZM433.449 162.435C435.705 160.38 437.775 158.084 439.629 155.582L438.995 155.005C437.176 157.461 435.143 159.715 432.928 161.733L433.449 162.435ZM426.186 167.827C423.633 169.343 420.931 170.592 418.112 171.539L417.874 170.669C420.641 169.739 423.293 168.513 425.798 167.025L426.186 167.827ZM405.166 173.656C406.641 173.656 408.099 173.576 409.537 173.421L409.458 172.516C408.046 172.668 406.614 172.746 405.166 172.746H400.707V173.656H405.166ZM338.271 173.656H329.351V172.746H338.271V173.656ZM347.19 173.656H356.109V172.746H347.19V173.656ZM373.948 173.656H365.029V172.746H373.948V173.656ZM382.868 173.656H391.787V172.746H382.868V173.656ZM476.82 315.589C478.151 315.782 479.509 315.881 480.888 315.881H485.207V316.79H480.888C479.473 316.79 478.08 316.689 476.714 316.491L476.82 315.589ZM502.485 315.881H493.846V316.79H502.485V315.881ZM511.125 315.881H519.764V316.79H511.125V315.881ZM537.042 315.881H528.403V316.79H537.042V315.881ZM545.681 315.881H550.001V316.79H545.681V315.881ZM468.968 313.261C466.436 312.097 464.073 310.573 461.93 308.747L461.43 309.468C463.629 311.342 466.055 312.906 468.653 314.101L468.968 313.261ZM452.11 294.567C453.16 297.374 454.534 299.995 456.181 302.371L455.53 302.926C453.84 300.487 452.43 297.797 451.352 294.916L452.11 294.567ZM450.01 285.86C449.837 284.384 449.747 282.878 449.747 281.349V274.352H448.927V281.349C448.927 282.918 449.019 284.463 449.197 285.978L450.01 285.86ZM449.747 253.36V260.357H448.927V253.36C448.927 251.754 448.857 250.167 448.719 248.601L449.536 248.513C449.676 250.108 449.747 251.725 449.747 253.36ZM447.838 239.005C446.984 235.878 445.858 232.882 444.491 230.052L443.768 230.481C445.11 233.26 446.215 236.2 447.053 239.269L447.838 239.005ZM433.449 215.144C435.705 217.2 437.775 219.496 439.629 221.998L438.995 222.575C437.176 220.119 435.143 217.865 432.928 215.847L433.449 215.144ZM426.186 209.753C423.633 208.237 420.931 206.988 418.112 206.041L417.874 206.911C420.641 207.841 423.293 209.066 425.798 210.555L426.186 209.753ZM405.166 203.924C406.641 203.924 408.099 204.004 409.537 204.159L409.458 205.064C408.046 204.912 406.614 204.834 405.166 204.834H400.707V203.924H405.166ZM338.271 203.924H329.351V204.834H338.271V203.924ZM347.19 203.924H356.109V204.834H347.19V203.924ZM373.948 203.924H365.029V204.834H373.948V203.924ZM382.868 203.924H391.787V204.834H382.868V203.924ZM428.943 189.561H424.54C424.52 189.566 424.499 189.57 424.478 189.571C424.468 189.572 424.459 189.572 424.449 189.572H419.953V188.663H424.368C424.397 188.655 424.428 188.652 424.459 188.652H428.943V189.561ZM424.614 189.527L424.606 189.531L424.449 189.112L424.459 189.117L424.461 189.118L424.614 189.527ZM424.293 188.697L424.302 188.693L424.459 189.112L424.449 189.107L424.447 189.106L424.293 188.697ZM446.877 189.561H437.91V188.652H446.877V189.561ZM455.844 189.561H464.812V188.652H455.844V189.561ZM482.746 189.561H473.779V188.652H482.746V189.561ZM491.713 189.561H500.681V188.652H491.713V189.561ZM518.615 189.561H509.648V188.652H518.615V189.561ZM527.582 189.561H536.55V188.652H527.582V189.561ZM550.001 189.561H545.517V188.652H550.001V189.561ZM330.037 189.572H339.029V188.663H330.037V189.572ZM357.012 189.572H348.02V188.663H357.012V189.572ZM366.003 189.572H374.995V188.663H366.003V189.572ZM392.978 189.572H383.987V188.663H392.978V189.572ZM401.97 189.572H410.961V188.663H401.97V189.572ZM97.2081 154.906C95.5722 155.143 93.9039 155.265 92.2101 155.265H87.7733V154.356H92.2101C93.8683 154.356 95.5012 154.236 97.102 154.005L97.2081 154.906ZM7.9116 155.265H0.164062V154.356H7.9116V155.265ZM0.164062 173.656V172.746H8.20985V173.656H0.164062ZM0.164062 188.663V189.572H8.67908V188.663H0.164062ZM0.164062 204.834V203.924H8.20985V204.834H0.164062ZM0.164062 221.735V222.644H7.9116V221.735H0.164062ZM16.7851 155.265H25.6587V154.356H16.7851V155.265ZM43.4057 155.265H34.5322V154.356H43.4057V155.265ZM52.2792 155.265H61.1528V154.356H52.2792V155.265ZM78.8998 155.265H70.0263V154.356H78.8998V155.265ZM92.2101 221.735C93.9039 221.735 95.5722 221.857 97.2081 222.093L97.102 222.995C95.5012 222.764 93.8683 222.644 92.2101 222.644H87.7733V221.735H92.2101ZM25.6587 221.735H16.7851V222.644H25.6587V221.735ZM34.5322 221.735H43.4057V222.644H34.5322V221.735ZM61.1528 221.735H52.2792V222.644H61.1528V221.735ZM70.0263 221.735H78.8998V222.644H70.0263V221.735ZM17.1293 173.656H26.0487V172.746H17.1293V173.656ZM43.8875 173.656H34.9681V172.746H43.8875V173.656ZM52.8069 173.656H61.7263V172.746H52.8069V173.656ZM79.5652 173.656H70.6457V172.746H79.5652V173.656ZM88.4846 173.656H97.404V172.746H88.4846V173.656ZM17.1293 203.924H26.0487V204.834H17.1293V203.924ZM43.8875 203.924H34.9681V204.834H43.8875V203.924ZM52.8069 203.924H61.7263V204.834H52.8069V203.924ZM79.5652 203.924H70.6457V204.834H79.5652V203.924ZM88.4846 203.924H97.404V204.834H88.4846V203.924ZM17.6707 189.572H26.6623V188.663H17.6707V189.572ZM44.6455 189.572H35.6539V188.663H44.6455V189.572ZM53.6371 189.572H62.6287V188.663H53.6371V189.572ZM80.6119 189.572H71.6203V188.663H80.6119V189.572ZM89.6035 189.572H98.5951V188.663H89.6035V189.572Z" fill="url(#paint0_linear_147_4380)"/>
<defs>
<linearGradient id="paint0_linear_147_4380" x1="-6.6062" y1="89.8923" x2="534.303" y2="171.465" gradientUnits="userSpaceOnUse">
<stop stop-color="#FBFBFB" stop-opacity="0.74"/>
<stop offset="0.239583" stop-color="#FBFBFB" stop-opacity="0"/>
<stop offset="0.473958" stop-color="#FBFBFB" stop-opacity="0.72"/>
<stop offset="0.692708" stop-color="#FBFBFB" stop-opacity="0.19"/>
<stop offset="1" stop-color="#FBFBFB"/>
</linearGradient>
</defs>
</svg>
